<svg viewBox="0 0 24 24" fill="none" xmlns="http://www.w3.org/2000/svg" id="Cross-2--Streamline-Radix.svg" height="24" width="24"><desc>Cross 2 Streamline Icon: https://streamlinehq.com</desc><path fill-rule="evenodd" clip-rule="evenodd" d="M23.314880000000002 2.83408C23.908320000000003 2.2406400000000004 23.908320000000003 1.2785600000000001 23.314880000000002 0.6851200000000001C22.721600000000002 0.09168 21.75936 0.09168 21.16608 0.6851200000000001L12 9.851040000000001L2.83408 0.6851200000000001C2.2406400000000004 0.09168 1.2785600000000001 0.09168 0.6851200000000001 0.6851200000000001C0.09168 1.2785600000000001 0.09168 2.2406400000000004 0.6851200000000001 2.83408L9.851040000000001 12L0.6851200000000001 21.16592C0.09168 21.759520000000002 0.09168 22.72144 0.6851200000000001 23.31504C1.2785600000000001 23.908320000000003 2.2406400000000004 23.908320000000003 2.83408 23.31504L12 14.14896L21.16608 23.31504C21.75936 23.908320000000003 22.721600000000002 23.908320000000003 23.314880000000002 23.31504C23.90848 22.72144 23.90848 21.759520000000002 23.314880000000002 21.16592L14.14896 12L23.314880000000002 2.83408Z" fill="#ffffff" stroke-width="1"></path></svg>