<svg xmlns="http://www.w3.org/2000/svg" fill="none" viewBox="-0.5 -0.5 24 24" id="Close--Streamline-Ionic-Filled.svg" height="24" width="24"><desc>Close Streamline Icon: https://streamlinehq.com</desc><path fill="#ffffff" d="M14.31175 11.500095833333333 22.18172708333333 3.629975c0.37346250000000003 -0.3727916666666667 0.5835770833333334 -0.8787916666666667 0.5840083333333334 -1.4064979166666667 0.000575 -0.5278499999999999 -0.20867708333333335 -1.0341854166666669 -0.5815166666666667 -1.4076000000000002 -0.37288750000000004 -0.3735104166666667 -0.8788875 -0.5836729166666667 -1.4066416666666668 -0.5841041666666668 -0.52770625 -0.00043125 -1.0340416666666667 0.208725 -1.4075041666666666 0.5816125L11.5 8.683410416666668 3.629975 0.8133854166666667C3.2564645833333334 0.439875 2.7498416666666667 0.23 2.2217041666666666 0.23c-0.5283770833333333 0 -1.03485625 0.209875 -1.4084145833333332 0.5833854166666667C0.43977916666666667 1.1868479166666668 0.23 1.6934229166666668 0.23 2.2217041666666666c0 0.5282333333333333 0.20977916666666668 1.0347604166666666 0.5832895833333334 1.4082708333333334l7.870120833333335 7.870120833333335L0.8132895833333333 19.37007291666667C0.43977916666666667 19.743535416666667 0.23 20.25011041666667 0.23 20.778391666666668c0 0.5282333333333333 0.20977916666666668 1.03485625 0.5832895833333334 1.4083666666666668 0.3735583333333333 0.37346250000000003 0.8800375 0.5832416666666668 1.4084145833333332 0.5832416666666668 0.5281375 0 1.0347604166666666 -0.20977916666666668 1.4082708333333334 -0.5832416666666668L11.5 14.316685416666667l7.8700729166666665 7.8700729166666665c0.37346250000000003 0.37346250000000003 0.8800854166666667 0.5832416666666668 1.40831875 0.5832416666666668 0.5281854166666667 0 1.0347604166666666 -0.20977916666666668 1.4082708333333334 -0.5832416666666668 0.37346250000000003 -0.3735104166666667 0.5833375000000001 -0.8801333333333333 0.5833375000000001 -1.4083666666666668 0 -0.52828125 -0.209875 -1.03485625 -0.5833375000000001 -1.40831875L14.311702083333333 11.500095833333333Z" stroke-width="1"></path></svg>