<svg xmlns="http://www.w3.org/2000/svg" fill="none" viewBox="0 0 24 24" id="Clean-Broom-Wipe--Streamline-Flex.svg" height="24" width="24"><desc>Clean Broom Wipe Streamline Icon: https://streamlinehq.com</desc><g id="clean-broom-wipe"><path id="Union" fill="#ff0000" fill-rule="evenodd" d="M12.181422857142856 0.1488270857142857c0.6581314285714285 0.2666249142857143 0.9754971428571428 1.016282057142857 0.7088742857142857 1.6744014857142857L8.226017142857144 13.336234285714285c0.6077485714285714 0.21262285714285714 1.2246171428571428 0.5340171428571429 1.766622857142857 0.9660857142857142 0.9434914285714285 0.7521085714285713 1.7099485714285714 1.8867085714285712 1.7099485714285714 3.392365714285714 0 0.9178285714285713 0.22601142857142859 1.6801714285714284 0.5655942857142857 2.3033142857142854 0.5465657142857142 1.0028571428571427 1.742845714285714 1.3599428571428571 2.885022857142857 1.3599428571428571 0.7100742857142858 0 1.2857142857142856 0.5756571428571428 1.2857142857142856 1.2857142857142856s-0.5756399999999999 1.2857142857142856 -1.2857142857142856 1.2857142857142856h-0.15627428571428573v0.016457142857142854h-11.135657142857143c-1.79808 0 -3.693330342857143 -1.2013714285714285 -3.7411993714285714 -3.298628571428571C0.07994262857142857 18.888685714285714 0.4537577142857142 16.887651428571427 1.517046857142857 15.359639999999999 2.4080057142857143 14.079291428571429 3.751422857142857 13.182994285714285 5.576931428571428 13.026822857142857L10.507028571428572 0.8576948571428572c0.2666228571428571 -0.6581228571428571 1.0162799999999999 -0.9754933714285714 1.6743942857142855 -0.7088677714285714ZM22.596685714285712 23.92937142857143c0.7100571428571428 0 1.2857142857142856 -0.5756571428571428 1.2857142857142856 -1.2857142857142856s-0.5756571428571428 -1.2857142857142856 -1.2857142857142856 -1.2857142857142856h-3.3047999999999997c-0.7102285714285714 0 -1.2857142857142856 0.5756571428571428 -1.2857142857142856 1.2857142857142856s0.5754857142857143 1.2857142857142856 1.2857142857142856 1.2857142857142856h3.3047999999999997Zm-0.24445714285714285 -5.951657142857142c0 0.7100571428571428 -0.5756571428571428 1.2857142857142856 -1.2857142857142856 1.2857142857142856h-3.283885714285714c-0.7101085714285714 0 -1.2857485714285715 -0.5756571428571428 -1.2857485714285715 -1.2857142857142856s0.5756399999999999 -1.2856971428571429 1.2857485714285715 -1.2856971428571429h3.283885714285714c0.7100571428571428 0 1.2857142857142856 0.5756399999999999 1.2857142857142856 1.2856971428571429Zm-3.060171428571428 -3.5530628571428573c0.7100571428571428 0 1.2857142857142856 -0.5756228571428571 1.2857142857142856 -1.2857142857142856 0 -0.7100742857142858 -0.5756571428571428 -1.2857142857142856 -1.2857142857142856 -1.2857142857142856H16.008051428571427c-0.7100914285714285 0 -1.2857142857142856 0.5756399999999999 -1.2857142857142856 1.2857142857142856 0 0.7100914285714285 0.5756228571428571 1.2857142857142856 1.2857142857142856 1.2857142857142856h3.284005714285714Z" clip-rule="evenodd" stroke-width="1"></path></g></svg>