<svg xmlns="http://www.w3.org/2000/svg" fill="none" viewBox="-0.5 -0.5 24 24" id="Pause--Streamline-Ionic-Filled.svg" height="24" width="24"><desc>Pause Streamline Icon: https://streamlinehq.com</desc><path fill="#ffffff" d="M8.426625 22.770000000000003h-3.0736145833333337c-0.27168749999999997 0 -0.5323541666666667 -0.10800416666666666 -0.7245 -0.3001020833333333 -0.19205 -0.19214583333333335 -0.3000541666666667 -0.45271666666666666 -0.3000541666666667 -0.7244520833333333V1.2545541666666666c0 -0.2717354166666667 0.10800416666666666 -0.53230625 0.3000541666666667 -0.7244520833333333 0.19214583333333335 -0.19214583333333335 0.4528125 -0.3001020833333333 0.7245 -0.3001020833333333h3.0736145833333337c0.2717354166666667 0 0.5323541666666667 0.10795625 0.7245 0.3001020833333333 0.19209791666666667 0.19214583333333335 0.3000541666666667 0.45271666666666666 0.3000541666666667 0.7244520833333333v20.490891666666666c0 0.27168749999999997 -0.10795625 0.53230625 -0.3000541666666667 0.7244520833333333 -0.19214583333333335 0.19209791666666667 -0.45276458333333336 0.3001020833333333 -0.7245 0.3001020833333333Z" stroke-width="1"></path><path fill="#ffffff" d="M17.646989583333333 22.770000000000003H14.573375c-0.2717354166666667 0 -0.53230625 -0.10800416666666666 -0.7245 -0.3001020833333333 -0.19209791666666667 -0.19214583333333335 -0.3000541666666667 -0.45271666666666666 -0.3000541666666667 -0.7244520833333333V1.2545541666666666c0 -0.2717354166666667 0.10795625 -0.53230625 0.3000541666666667 -0.7244520833333333 0.19219375000000002 -0.19214583333333335 0.45276458333333336 -0.3001020833333333 0.7245 -0.3001020833333333h3.0736145833333337c0.27168749999999997 0 0.5323541666666667 0.10795625 0.7245 0.3001020833333333 0.19214583333333335 0.19214583333333335 0.3000541666666667 0.45271666666666666 0.3000541666666667 0.7244520833333333v20.490891666666666c0 0.27168749999999997 -0.10790833333333334 0.53230625 -0.3000541666666667 0.7244520833333333s-0.4528125 0.3001020833333333 -0.7245 0.3001020833333333Z" stroke-width="1"></path></svg>